<?xml version="1.0" encoding="UTF-8" standalone="no"?>
<!-- Created with Inkscape (http://www.inkscape.org/) -->

<svg
   width="480"
   height="512"
   viewBox="0 0 126.99999 135.46667"
   version="1.1"
   id="svg1"
   xml:space="preserve"
   sodipodi:docname="favicon.svg"
   inkscape:version="1.4 (e7c3feb1, 2024-10-09)"
   inkscape:export-filename="favicon.png"
   inkscape:export-xdpi="5.625"
   inkscape:export-ydpi="5.625"
   xmlns:inkscape="http://www.inkscape.org/namespaces/inkscape"
   xmlns:sodipodi="http://sodipodi.sourceforge.net/DTD/sodipodi-0.dtd"
   xmlns="http://www.w3.org/2000/svg"
   xmlns:svg="http://www.w3.org/2000/svg"><sodipodi:namedview
     id="namedview1"
     pagecolor="#ffffff"
     bordercolor="#000000"
     borderopacity="0.25"
     inkscape:showpageshadow="2"
     inkscape:pageopacity="0.0"
     inkscape:pagecheckerboard="0"
     inkscape:deskcolor="#d1d1d1"
     inkscape:document-units="mm"
     showguides="true"
     inkscape:zoom="1.1057554"
     inkscape:cx="163.23683"
     inkscape:cy="193.98504"
     inkscape:window-width="2056"
     inkscape:window-height="1290"
     inkscape:window-x="0"
     inkscape:window-y="39"
     inkscape:window-maximized="0"
     inkscape:current-layer="layer1" /><defs
     id="defs1" /><g
     inkscape:label="Layer 1"
     inkscape:groupmode="layer"
     id="layer1"><g
       id="g10"
       transform="matrix(1.211128,0,0,1.1929201,-17.906048,-13.13683)"
       style="stroke-width:0.831954"><path
         id="path1"
         style="fill:#23226d;fill-opacity:1;stroke-width:0.149683;stroke-linecap:round;stroke-linejoin:round;paint-order:fill markers stroke"
         d="M 67.266773,12.281266 C 43.128519,26.477124 17.072421,26.070089 17.072421,26.070089 c 0,0 -4.824509,53.604241 9.137426,73.164009 13.961935,19.559772 41.056926,24.673942 41.056926,24.673942 0,0 27.094472,-5.11417 41.056407,-24.673942 13.96193,-19.55977 9.13795,-73.164009 9.13795,-73.164009 0,0 -26.056101,0.407037 -50.194357,-13.788823 z" /><path
         id="path2"
         style="opacity:1;fill:#f9f9f9;stroke-width:0.149683;stroke-linecap:round;stroke-linejoin:round;paint-order:fill markers stroke"
         d="M 69.773632,45.037052 A 10.414818,10.414818 0 0 1 59.358814,55.45187 10.414818,10.414818 0 0 1 48.943996,45.037052 10.414818,10.414818 0 0 1 59.358814,34.622234 10.414818,10.414818 0 0 1 69.773632,45.037052 Z" /><path
         id="rect2"
         style="opacity:1;fill:#f9f9f9;stroke-width:0.149682;stroke-linecap:round;stroke-linejoin:round;paint-order:fill markers stroke"
         d="m 46.44471,64.740751 c -4.288371,0 -7.741129,3.452241 -7.741129,7.740613 V 90.884892 H 66.933382 V 79.646301 c 0,-4.732855 3.8227,-8.685791 8.508008,-8.903332 -1.384585,-1.674864 -2.298053,-3.745615 -2.551782,-6.002218 z" /><path
         id="path3"
         style="opacity:1;fill:#f9f9f9;stroke-width:0.149682;stroke-linecap:round;stroke-linejoin:round;paint-order:fill markers stroke"
         d="m 75.846858,74.733347 c -2.722019,0 -4.913638,2.191291 -4.913638,4.91331 V 91.328194 H 97.592495 V 79.646657 c 0,-2.722019 -2.19129,-4.91331 -4.913309,-4.91331 z" /><path
         id="circle3"
         style="opacity:1;fill:#f9f9f9;stroke-width:0.149683;stroke-linecap:round;stroke-linejoin:round;paint-order:fill markers stroke"
         d="m 91.729197,63.474094 a 7.4592614,7.4592614 0 0 1 -7.459261,7.459262 7.4592614,7.4592614 0 0 1 -7.459262,-7.459262 7.4592614,7.4592614 0 0 1 7.459262,-7.459261 7.4592614,7.4592614 0 0 1 7.459261,7.459261 z" /></g></g></svg>
